<?xml version="1.0" encoding="utf-8"?>
<!-- Generator: Adobe Illustrator 26.0.3, SVG Export Plug-In . SVG Version: 6.00 Build 0)  -->
<svg version="1.1" id="Layer_1" xmlns="http://www.w3.org/2000/svg" xmlns:xlink="http://www.w3.org/1999/xlink" x="0px" y="0px"
	 viewBox="0 0 35 54" style="enable-background:new 0 0 35 54;" xml:space="preserve">
<path fill="#fff" d="M14.8,1.8c0-1,0.8-1.8,1.8-1.8h1.8c1,0,1.8,0.8,1.8,1.8V23h-5.3V1.8z M14.8,30h5.3v21.6c0,1-0.8,1.8-1.8,1.8
	h-1.8c-1,0-1.8-0.8-1.8-1.8V30z M13.6,5.3V23H8.9V7.1c0-1,0.8-1.8,1.8-1.8H13.6z M13.6,30H8.9v15.7c0,1,0.8,1.8,1.8,1.8h3V30z
	 M7.7,14.8V23H3.6v-6.4c0-1,0.8-1.8,1.8-1.8H7.7z M7.7,30H3.6v6.2c0,1,0.8,1.8,1.8,1.8h2.4V30z M26.1,30h-4.7v17.5h3
	c1,0,1.8-0.8,1.8-1.8V30z M21.4,23h4.7V7.1c0-1-0.8-1.8-1.8-1.8h-3V23z M27.3,38v-8h4.2v6.2c0,1-0.8,1.8-1.8,1.8H27.3z M27.3,23h4.2
	v-6.4c0-1-0.8-1.8-1.8-1.8h-2.4V23z M0,27.6c0,0.8,0.7,1.5,1.5,1.5h32c0.8,0,1.5-0.7,1.5-1.5v-2c0-0.8-0.7-1.5-1.5-1.5h-32
	c-0.8,0-1.5,0.7-1.5,1.5L0,27.6z"/>
</svg>
