<svg width="35" height="54" viewBox="0 0 35 54" fill="none" xmlns="http://www.w3.org/2000/svg">
<path fill-rule="evenodd" clip-rule="evenodd" d="M16.6103 0C15.6274 0 14.8306 0.796783 14.8306 1.77966V23L20.1696 23V1.77966C20.1696 0.796781 19.3728 0 18.39 0H16.6103ZM13.644 5.33862V23H8.89827V7.11828C8.89827 6.1354 9.69505 5.33862 10.6779 5.33862H13.644ZM13.644 30H8.89827V45.6776C8.89827 46.6605 9.69505 47.4573 10.6779 47.4573H13.644V30ZM7.7126 14.8301V23H3.56006V16.6098C3.56006 15.6269 4.35684 14.8301 5.33972 14.8301H7.7126ZM7.7126 30H3.56006V36.1861C3.56006 37.169 4.35684 37.9657 5.33972 37.9657H7.7126V30ZM20.1696 30L14.8306 30V51.6102C14.8306 52.5931 15.6274 53.3898 16.6103 53.3898H18.39C19.3728 53.3898 20.1696 52.593 20.1696 51.6102V30ZM21.357 47.4573V30H26.1028V45.6777C26.1028 46.6605 25.306 47.4573 24.3231 47.4573H21.357ZM27.2883 37.9657V30H31.4409V36.1861C31.4409 37.169 30.6441 37.9657 29.6612 37.9657H27.2883ZM27.2883 23H31.4409V16.6098C31.4409 15.6269 30.6441 14.8301 29.6612 14.8301H27.2883V23ZM21.357 23H26.1028V7.11833C26.1028 6.13545 25.306 5.33867 24.3231 5.33867H21.357V23ZM0 27.5843C0 28.4034 0.663985 29.0674 1.48305 29.0674L33.5169 29.0674C34.336 29.0674 35 28.4034 35 27.5843V25.5504C35 24.7314 34.336 24.0674 33.5169 24.0674L1.48305 24.0674C0.663984 24.0674 0 24.7314 0 25.5504V27.5843Z" fill="white"/>
</svg>
