<svg width="117" height="40" viewBox="0 0 117 40" fill="none" xmlns="http://www.w3.org/2000/svg">
<path fill-rule="evenodd" clip-rule="evenodd" d="M6 1C3.23858 1 1 3.23858 1 6V23C1 25.7614 3.23858 28 6 28H49.1137L57.7393 38.1085C58.1385 38.5764 58.8614 38.5764 59.2607 38.1085L67.8863 28H111C113.761 28 116 25.7614 116 23V6C116 3.23858 113.761 1 111 1H6Z" fill="#1B1934"/>
<path d="M49.1137 28L49.8744 27.3509L49.575 27H49.1137V28ZM57.7393 38.1085L56.9786 38.7576L56.9786 38.7576L57.7393 38.1085ZM59.2607 38.1085L60.0214 38.7576L60.0214 38.7576L59.2607 38.1085ZM67.8863 28V27H67.425L67.1256 27.3509L67.8863 28ZM2 6C2 3.79086 3.79086 2 6 2V0C2.68629 0 0 2.68629 0 6H2ZM2 23V6H0V23H2ZM6 27C3.79086 27 2 25.2091 2 23H0C0 26.3137 2.68629 29 6 29V27ZM49.1137 27H6V29H49.1137V27ZM58.5 37.4594L49.8744 27.3509L48.353 28.6491L56.9786 38.7576L58.5 37.4594ZM58.5 37.4594L58.5 37.4594L56.9786 38.7576C57.777 39.6933 59.2229 39.6933 60.0214 38.7576L58.5 37.4594ZM67.1256 27.3509L58.5 37.4594L60.0214 38.7576L68.647 28.6491L67.1256 27.3509ZM111 27H67.8863V29H111V27ZM115 23C115 25.2091 113.209 27 111 27V29C114.314 29 117 26.3137 117 23H115ZM115 6V23H117V6H115ZM111 2C113.209 2 115 3.79086 115 6H117C117 2.68629 114.314 0 111 0V2ZM6 2H111V0H6V2Z" fill="#A286FF"/>
</svg>
